<svg width="16" height="16" viewBox="0 0 16 16" fill="none" xmlns="http://www.w3.org/2000/svg">
<path d="M11.5101 8.43984C11.6834 8.61318 11.7768 8.85318 11.7768 9.10651C11.7768 9.34651 11.6834 9.5865 11.5101 9.75983C11.3368 9.93316 11.0968 10.0398 10.8434 10.0398C10.6034 10.0398 10.3634 9.93316 10.1768 9.75983C10.0034 9.5865 9.91009 9.34651 9.91009 9.10651C9.91009 8.85318 10.0168 8.62651 10.1768 8.43984C10.3501 8.26651 10.5901 8.17318 10.8434 8.17318C11.0968 8.17318 11.3368 8.26651 11.5101 8.43984ZM14.0034 6.35983V12.2532C14.0034 12.8532 13.5234 13.3332 12.9234 13.3332H3.27008C2.56342 13.3332 2.00342 12.7598 2.00342 12.0665V7.2665V6.14652V4.2665C2.00342 3.3865 2.72342 2.6665 3.60342 2.6665H10.9768C11.7101 2.6665 12.2701 3.2665 12.2701 3.99984V4.79984H12.5101C13.3368 4.79984 14.0034 5.53316 14.0034 6.35983ZM2.99009 4.2665C2.99009 4.55984 3.23009 4.79984 3.52342 4.79984H11.2034V3.97318C11.2034 3.83984 11.0967 3.73317 10.9634 3.73317H3.52342C3.23009 3.73317 2.99009 3.97317 2.99009 4.2665ZM12.9368 6.35983C12.9368 6.13316 12.7501 5.8665 12.5101 5.8665H3.28341C3.16341 5.8665 3.07008 6.02652 3.07008 6.14652V7.2665V12.0665C3.07008 12.1732 3.16342 12.2665 3.27008 12.2665H12.9234C12.9368 12.2665 12.9368 12.2532 12.9368 12.2532V6.35983Z" fill="#070821"/>
</svg>
