<svg width="16" height="16" viewBox="0 0 16 16" fill="none" xmlns="http://www.w3.org/2000/svg">
<path d="M12.3619 11.2952C13.3143 10.0952 13.8857 8.59048 13.8857 6.95238C13.9048 3.12381 10.781 0 6.95238 0C3.12381 0 0 3.12381 0 6.95238C0 10.781 3.12381 13.9048 6.95238 13.9048C8.59048 13.9048 10.0952 13.3333 11.2952 12.381L14.7048 15.7905C14.8571 15.9238 15.0476 16 15.2381 16C15.4286 16 15.619 15.9238 15.7714 15.7714C16.0762 15.4667 16.0762 14.9905 15.7714 14.6857L12.3619 11.2952ZM1.52381 6.95238C1.52381 3.9619 3.9619 1.52381 6.95238 1.52381C9.94286 1.52381 12.381 3.9619 12.381 6.95238C12.381 9.94286 9.94286 12.381 6.95238 12.381C3.9619 12.381 1.52381 9.94286 1.52381 6.95238Z" fill="#070821"/>
</svg>
