<svg width="22" height="22" viewBox="0 0 22 22" fill="none" xmlns="http://www.w3.org/2000/svg">
<path fill-rule="evenodd" clip-rule="evenodd" d="M0.767442 4.74677C0.767442 1.76203 0.799401 0.767442 4.74677 0.767442C8.69414 0.767442 8.7261 1.76203 8.7261 4.74677C8.7261 7.73151 8.73869 8.7261 4.74677 8.7261C0.754853 8.7261 0.767442 7.73151 0.767442 4.74677Z" stroke="#130F26" stroke-width="1.5" stroke-linecap="round" stroke-linejoin="round"/>
<path fill-rule="evenodd" clip-rule="evenodd" d="M13.2738 4.74677C13.2738 1.76203 13.3058 0.767442 17.2532 0.767442C21.2005 0.767442 21.2325 1.76203 21.2325 4.74677C21.2325 7.73151 21.2451 8.7261 17.2532 8.7261C13.2613 8.7261 13.2738 7.73151 13.2738 4.74677Z" stroke="#130F26" stroke-width="1.5" stroke-linecap="round" stroke-linejoin="round"/>
<path fill-rule="evenodd" clip-rule="evenodd" d="M0.767442 17.2532C0.767442 14.2684 0.799401 13.2738 4.74677 13.2738C8.69414 13.2738 8.7261 14.2684 8.7261 17.2532C8.7261 20.2379 8.73869 21.2325 4.74677 21.2325C0.754853 21.2325 0.767442 20.2379 0.767442 17.2532Z" stroke="#130F26" stroke-width="1.5" stroke-linecap="round" stroke-linejoin="round"/>
<path fill-rule="evenodd" clip-rule="evenodd" d="M13.2738 17.2532C13.2738 14.2684 13.3058 13.2738 17.2532 13.2738C21.2005 13.2738 21.2325 14.2684 21.2325 17.2532C21.2325 20.2379 21.2451 21.2325 17.2532 21.2325C13.2613 21.2325 13.2738 20.2379 13.2738 17.2532Z" stroke="#130F26" stroke-width="1.5" stroke-linecap="round" stroke-linejoin="round"/>
</svg>
