<svg width="21" height="23" viewBox="0 0 21 23" fill="none" xmlns="http://www.w3.org/2000/svg">
<mask id="mask0_0_12" style="mask-type:luminance" maskUnits="userSpaceOnUse" x="3" y="13" width="14" height="8">
<path fill-rule="evenodd" clip-rule="evenodd" d="M3.36808 13.8923H16.7053V20.959H3.36808V13.8923Z" fill="white"/>
</mask>
<g mask="url(#mask0_0_12)">
<path fill-rule="evenodd" clip-rule="evenodd" d="M10.0376 15.3298C6.4498 15.3298 4.63108 16.0313 4.63108 17.4161C4.63108 18.8133 6.4498 19.5215 10.0376 19.5215C13.6245 19.5215 15.4424 18.82 15.4424 17.4352C15.4424 16.038 13.6245 15.3298 10.0376 15.3298ZM10.0376 20.959C8.38808 20.959 3.36808 20.959 3.36808 17.4161C3.36808 14.2574 7.17476 13.8923 10.0376 13.8923C11.687 13.8923 16.7054 13.8923 16.7054 17.4352C16.7054 20.5939 12.8995 20.959 10.0376 20.959Z" fill="#7B6F72"/>
</g>
<mask id="mask1_0_12" style="mask-type:luminance" maskUnits="userSpaceOnUse" x="5" y="1" width="10" height="12">
<path fill-rule="evenodd" clip-rule="evenodd" d="M5.56579 1.91683H14.5079V12.093H5.56579V1.91683Z" fill="white"/>
</mask>
<g mask="url(#mask1_0_12)">
<path fill-rule="evenodd" clip-rule="evenodd" d="M10.0377 3.28484C8.23496 3.28484 6.7682 4.9533 6.7682 7.00509C6.76231 9.05017 8.21812 10.7177 10.0133 10.7253L10.0377 11.4096V10.7253C11.8396 10.7253 13.3055 9.05592 13.3055 7.00509C13.3055 4.9533 11.8396 3.28484 10.0377 3.28484ZM10.0377 12.0929H10.0107C7.55041 12.0842 5.5574 9.80054 5.56582 7.00221C5.56582 4.19909 7.57146 1.91634 10.0377 1.91634C12.5031 1.91634 14.5079 4.19909 14.5079 7.00508C14.5079 9.81108 12.5031 12.0929 10.0377 12.0929Z" fill="#7B6F72"/>
</g>
</svg>
