<svg width="16" height="16" viewBox="0 0 16 16" fill="none" xmlns="http://www.w3.org/2000/svg">
<path d="M11.0034 2.92004C10.2434 2.24004 9.1767 1.8667 8.0167 1.8667C6.8567 1.8667 5.79003 2.24004 5.03003 2.92004C4.11003 3.7467 3.6167 4.9867 3.6167 6.52004C3.6167 9.8667 7.47004 13.8 7.64337 13.96C7.75004 14.0667 7.88336 14.12 8.0167 14.12C8.15003 14.12 8.2967 14.0667 8.39004 13.96C8.55004 13.8 12.4167 9.8667 12.4167 6.52004C12.4034 4.9867 11.9234 3.7467 11.0034 2.92004ZM8.00337 12.8134C7.64337 12.4134 7.07004 11.7467 6.51004 10.9467C5.31004 9.24003 4.67003 7.72003 4.67003 6.53337C4.67003 3.20003 7.2167 2.93337 8.00337 2.93337C11.0967 2.93337 11.3367 5.69337 11.3367 6.53337C11.3367 8.88003 8.95003 11.7734 8.00337 12.8134ZM8.00337 4.17336C6.83003 4.17336 5.88336 5.1467 5.88336 6.33337C5.88336 7.52003 6.83003 8.49337 8.00337 8.49337C9.1767 8.49337 10.1234 7.52003 10.1234 6.33337C10.1234 5.13337 9.1767 4.17336 8.00337 4.17336ZM8.00337 7.5467C7.35003 7.5467 6.8167 7.00004 6.8167 6.32004C6.8167 5.64004 7.35003 5.09337 8.00337 5.09337C8.6567 5.09337 9.19004 5.64004 9.19004 6.32004C9.19004 7.00004 8.6567 7.5467 8.00337 7.5467Z" fill="#070821"/>
</svg>
