<svg width="101" height="175" viewBox="0 0 101 175" fill="none" xmlns="http://www.w3.org/2000/svg">
<defs>
<linearGradient id="paint0_linear_985_1985" x1="116.991" y1="84.5085" x2="72.5929" y2="83.1834" gradientUnits="userSpaceOnUse">
<stop stop-color="#C58BF2"/>
<stop offset="1" stop-color="#92A3FD"/>
</linearGradient>
<linearGradient id="paint1_linear_985_1985" x1="107.603" y1="71.9323" x2="92.0767" y2="71.4529" gradientUnits="userSpaceOnUse">
<stop stop-color="#C58BF2"/>
<stop offset="1" stop-color="#92A3FD"/>
</linearGradient>
<linearGradient id="paint2_linear_985_1985" x1="79.845" y1="76.5506" x2="67.3614" y2="76.1373" gradientUnits="userSpaceOnUse">
<stop stop-color="#C58BF2"/>
<stop offset="1" stop-color="#92A3FD"/>
</linearGradient>
<clipPath id="clip0_985_1985">
<rect width="101" height="175" fill="white"/>
</clipPath>
</defs>
<g clip-path="url(#clip0_985_1985)">
<path d="M97.9316 43.8399H96.8852V17.9715C96.8852 14.0008 95.1378 10.1928 92.0274 7.38506C88.9171 4.57735 84.6985 3 80.2997 3H19.5855C15.1868 3 10.9682 4.57735 7.85779 7.38506C4.7474 10.1928 3 14.0008 3 17.9715V159.888C3 163.859 4.7474 167.667 7.85779 170.474C10.9682 173.282 15.1868 174.859 19.5855 174.859H80.2995C84.6982 174.859 88.9168 173.282 92.0272 170.474C95.1376 167.667 96.885 163.859 96.885 159.888V62.2534H97.9314L97.9316 43.8399Z" fill="#3F3D56"/>
<path d="M80.9689 6.89478H73.0437C73.4084 7.70142 73.5476 8.57663 73.4493 9.44331C73.3509 10.31 73.0178 11.1415 72.4795 11.8646C71.9412 12.5877 71.2141 13.1802 70.3624 13.5899C69.5106 13.9996 68.5603 14.2138 67.5951 14.2138H32.8129C31.8479 14.2137 30.8977 13.9994 30.0461 13.5898C29.1944 13.1802 28.4674 12.5877 27.9292 11.8647C27.3909 11.1417 27.0579 10.3103 26.9594 9.44375C26.8609 8.57719 27.0001 7.70207 27.3645 6.89548H19.9612C16.6762 6.89548 13.5257 8.07347 11.2028 10.1703C8.87992 12.2671 7.57495 15.1111 7.57495 18.0764V159.784C7.57495 162.749 8.87992 165.593 11.2028 167.69C13.5257 169.787 16.6762 170.965 19.9612 170.965H80.9666C84.2516 170.965 87.4021 169.787 89.725 167.69C92.0479 165.593 93.3529 162.749 93.3529 159.784V159.784V18.0757C93.3529 15.1103 92.0479 12.2664 89.725 10.1696C87.4021 8.07276 84.2516 6.89478 80.9666 6.89478H80.9689Z" fill="white"/>
<path d="M85.5943 34.7581H15.3369V143.101H85.5943V34.7581Z" fill="#E6E6E6"/>
<path d="M50.5699 163.046C54.3264 163.046 57.3716 160.297 57.3716 156.906C57.3716 153.515 54.3264 150.766 50.5699 150.766C46.8135 150.766 43.7683 153.515 43.7683 156.906C43.7683 160.297 46.8135 163.046 50.5699 163.046Z" fill="#E6E6E6"/>
<path d="M83.0829 154.699L82.3059 161.479L86.7089 161.011L87.2269 155.4L83.0829 154.699Z" fill="#FFB9B9"/>
<path d="M71.4278 103.262C71.4278 103.262 48.894 122.901 63.1394 128.98H67.5425C67.5425 128.98 77.1257 114.717 81.7879 114.952L83.0829 128.513L82.3059 155.868L88.0041 156.102C88.0041 156.102 91.3712 142.307 91.1122 134.592L97.0694 106.068L71.4278 103.262Z" fill="#2F2E41"/>
<path d="M64.4338 128.045L67.5419 128.98C67.5419 128.98 79.7153 126.409 80.4912 126.643L82.9013 126.627L82.8228 121.031H72.4634L64.4338 128.045Z" fill="#2F2E41"/>
<path d="M87.2266 160.076C87.2266 160.076 82.5644 158.206 81.7874 160.076C81.0105 161.947 81.2695 167.324 81.2695 167.324C81.8909 168.403 82.0741 169.644 81.7874 170.831C81.2695 172.702 83.8596 173.637 87.2266 172.702C90.5937 171.767 90.5937 169.429 90.5937 169.429L87.2266 160.076Z" fill="#2F2E41"/>
<path d="M91.1118 120.562C91.1118 120.562 94.7378 118.692 94.4789 121.497C94.2639 123.35 93.74 125.163 92.9247 126.875C92.9247 126.875 96.2918 134.824 92.9247 135.526C89.5576 136.227 86.9675 134.59 86.9675 133.421C86.9675 132.252 91.1118 120.562 91.1118 120.562Z" fill="#2F2E41"/>
<path d="M79.7153 56.5015L80.2336 65.3862L84.6366 68.8927L89.5578 62.5801V56.2677L79.7153 56.5015Z" fill="#FFB9B9"/>
<path d="M83.0823 65.3859L80.1174 63.3971L78.1614 66.0872L69.3551 70.7629L74.5348 82.9205L74.7938 94.8446C74.7938 94.8446 65.2106 103.729 70.9087 104.898C76.6069 106.067 96.8096 108.639 97.8455 106.535C98.8815 104.431 96.5506 82.687 96.5506 82.687L97.3276 64.2165L89.558 61.6805L83.0823 65.3859Z" fill="url(#paint0_linear_985_1985)"/>
<path d="M67.2832 80.1937C67.2832 80.1937 65.2111 93.4414 69.0963 93.4414C71.4037 93.4485 73.6906 93.0515 75.8305 92.2725L72.7224 85.0245L74.0173 80.1146L67.2832 80.1937Z" fill="#FFB9B9"/>
<path d="M73.2403 91.8057L76.0893 92.2733C76.0893 92.2733 84.3776 87.5976 84.8956 87.3634C85.4136 87.1291 76.6073 83.1548 76.6073 83.1548L70.6501 85.2591L73.2403 91.8057Z" fill="#FFB9B9"/>
<path opacity="0.1" d="M76.6074 83.1548L72.8665 84.476L74.0176 80.1154L67.2834 80.1935C67.2834 80.1935 65.2113 93.4412 69.0966 93.4412C71.4039 93.4483 73.6909 93.0513 75.8307 92.2723L75.8111 92.2265L76.0897 92.2723C76.0897 92.2723 84.378 87.5966 84.896 87.3624C85.4139 87.1281 76.6074 83.1548 76.6074 83.1548Z" fill="black"/>
<path d="M85.7073 60.9345C89.7919 60.9345 93.1032 57.9455 93.1032 54.2583C93.1032 50.5711 89.7919 47.582 85.7073 47.582C81.6226 47.582 78.3113 50.5711 78.3113 54.2583C78.3113 57.9455 81.6226 60.9345 85.7073 60.9345Z" fill="#FFB9B9"/>
<path d="M79.1681 46.7265L77.723 46.2044C77.723 46.2044 80.7445 43.2016 84.9482 43.4628L83.7658 42.2877C83.7658 42.2877 86.6559 41.2433 89.2832 43.9849C90.6645 45.4254 92.2623 47.1202 93.2595 49.0285H94.8072L94.1613 50.3121L96.4212 51.5965L94.1008 51.3658C94.3206 52.4741 94.2454 53.6138 93.8814 54.6907L93.9436 55.7061C93.9436 55.7061 91.2541 51.9498 91.2541 51.4277V52.7333C91.2541 52.7333 89.809 51.5583 89.809 50.775L89.0208 51.6888L88.6255 50.2505L83.765 51.6865L84.5532 50.5114L81.5317 50.9032L82.7141 49.4672C82.7141 49.4672 79.2987 51.1644 79.1671 52.6006C79.0355 54.0368 77.328 55.8643 77.328 55.8643L76.5398 54.5587C76.5398 54.5587 75.3584 48.6849 79.1681 46.7265Z" fill="#2F2E41"/>
<path d="M92.1479 76.1408C90.8407 77.5986 90.1112 79.4092 90.0757 81.2845L76.3482 80.8169C76.3482 80.8169 72.7222 80.3494 72.7222 82.6874V85.0252C72.7222 85.0252 74.5353 84.3239 75.5713 85.0252C76.6072 85.7266 87.7446 91.8056 93.1838 89.4676C98.623 87.1295 99.918 78.0113 99.918 78.0113C99.918 78.0113 94.997 74.2703 92.1479 76.1408Z" fill="#FFB9B9"/>
<path d="M95.257 64.4506L97.3292 64.2168C97.3292 64.2168 101.473 64.6844 100.955 71.9323C100.437 79.1803 100.178 79.6478 100.178 79.6478C100.178 79.6478 94.739 75.2055 90.854 77.31L95.257 64.4506Z" fill="url(#paint1_linear_985_1985)"/>
<path d="M70.391 70.764H69.3551C68.0128 72.2945 67.2826 74.1894 67.2829 76.1415C67.2591 78.2322 66.9548 80.3126 66.3765 82.3372L74.5353 81.0514L70.391 70.764Z" fill="url(#paint2_linear_985_1985)"/>
</g>

</svg>
