<svg viewBox="0 0 238 50" fill="none" xmlns="http://www.w3.org/2000/svg">
<defs>
<linearGradient id="paint0_linear_920_2827" x1="436.333" y1="68.4074" x2="-21.3873" y2="-168.062" gradientUnits="userSpaceOnUse">
<stop stop-color="#CC8FED"/>
<stop offset="1" stop-color="#9DCEFF"/>
</linearGradient>
</defs>
<path d="M15.8 36.35C13.2333 36.35 10.9333 35.9333 8.9 35.1C6.86667 34.2667 5.23333 33.0333 4 31.4C2.8 29.7667 2.16667 27.8 2.1 25.5H11.2C11.3333 26.8 11.7833 27.8 12.55 28.5C13.3167 29.1667 14.3167 29.5 15.55 29.5C16.8167 29.5 17.8167 29.2167 18.55 28.65C19.2833 28.05 19.65 27.2333 19.65 26.2C19.65 25.3333 19.35 24.6167 18.75 24.05C18.1833 23.4833 17.4667 23.0167 16.6 22.65C15.7667 22.2833 14.5667 21.8667 13 21.4C10.7333 20.7 8.88333 20 7.45 19.3C6.01667 18.6 4.78333 17.5667 3.75 16.2C2.71667 14.8333 2.2 13.05 2.2 10.85C2.2 7.58333 3.38333 5.03333 5.75 3.2C8.11667 1.33333 11.2 0.399999 15 0.399999C18.8667 0.399999 21.9833 1.33333 24.35 3.2C26.7167 5.03333 27.9833 7.6 28.15 10.9H18.9C18.8333 9.76667 18.4167 8.88333 17.65 8.25C16.8833 7.58333 15.9 7.25 14.7 7.25C13.6667 7.25 12.8333 7.53333 12.2 8.1C11.5667 8.63333 11.25 9.41666 11.25 10.45C11.25 11.5833 11.7833 12.4667 12.85 13.1C13.9167 13.7333 15.5833 14.4167 17.85 15.15C20.1167 15.9167 21.95 16.65 23.35 17.35C24.7833 18.05 26.0167 19.0667 27.05 20.4C28.0833 21.7333 28.6 23.45 28.6 25.55C28.6 27.55 28.0833 29.3667 27.05 31C26.05 32.6333 24.5833 33.9333 22.65 34.9C20.7167 35.8667 18.4333 36.35 15.8 36.35ZM42.4117 12.05C43.2451 10.75 44.3951 9.7 45.8617 8.9C47.3284 8.1 49.0451 7.7 51.0117 7.7C53.3117 7.7 55.3951 8.28333 57.2617 9.45C59.1284 10.6167 60.5951 12.2833 61.6617 14.45C62.7617 16.6167 63.3117 19.1333 63.3117 22C63.3117 24.8667 62.7617 27.4 61.6617 29.6C60.5951 31.7667 59.1284 33.45 57.2617 34.65C55.3951 35.8167 53.3117 36.4 51.0117 36.4C49.0784 36.4 47.3617 36 45.8617 35.2C44.3951 34.4 43.2451 33.3667 42.4117 32.1V49.3H33.8617V8.1H42.4117V12.05ZM54.6117 22C54.6117 19.8667 54.0117 18.2 52.8117 17C51.6451 15.7667 50.1951 15.15 48.4617 15.15C46.7617 15.15 45.3117 15.7667 44.1117 17C42.9451 18.2333 42.3617 19.9167 42.3617 22.05C42.3617 24.1833 42.9451 25.8667 44.1117 27.1C45.3117 28.3333 46.7617 28.95 48.4617 28.95C50.1617 28.95 51.6117 28.3333 52.8117 27.1C54.0117 25.8333 54.6117 24.1333 54.6117 22ZM80.4973 36.4C77.7639 36.4 75.2973 35.8167 73.0973 34.65C70.9306 33.4833 69.2139 31.8167 67.9473 29.65C66.7139 27.4833 66.0973 24.95 66.0973 22.05C66.0973 19.1833 66.7306 16.6667 67.9973 14.5C69.2639 12.3 70.9973 10.6167 73.1973 9.45C75.3973 8.28333 77.8639 7.7 80.5973 7.7C83.3306 7.7 85.7973 8.28333 87.9973 9.45C90.1973 10.6167 91.9306 12.3 93.1973 14.5C94.4639 16.6667 95.0973 19.1833 95.0973 22.05C95.0973 24.9167 94.4473 27.45 93.1473 29.65C91.8806 31.8167 90.1306 33.4833 87.8973 34.65C85.6973 35.8167 83.2306 36.4 80.4973 36.4ZM80.4973 29C82.1306 29 83.5139 28.4 84.6473 27.2C85.8139 26 86.3973 24.2833 86.3973 22.05C86.3973 19.8167 85.8306 18.1 84.6973 16.9C83.5973 15.7 82.2306 15.1 80.5973 15.1C78.9306 15.1 77.5473 15.7 76.4473 16.9C75.3473 18.0667 74.7973 19.7833 74.7973 22.05C74.7973 24.2833 75.3306 26 76.3973 27.2C77.4973 28.4 78.8639 29 80.4973 29ZM115.183 28.75V36H110.833C107.733 36 105.317 35.25 103.583 33.75C101.85 32.2167 100.983 29.7333 100.983 26.3V15.2H97.5832V8.1H100.983V1.3H109.533V8.1H115.133V15.2H109.533V26.4C109.533 27.2333 109.733 27.8333 110.133 28.2C110.533 28.5667 111.2 28.75 112.133 28.75H115.183ZM128.496 29.4H139.696V36H119.946V0.899999H128.496V29.4ZM152.324 7.75V14.85H163.774V21.45H152.324V29.15H165.274V36H143.774V0.899999H165.274V7.75H152.324ZM183.525 36.35C180.958 36.35 178.658 35.9333 176.625 35.1C174.591 34.2667 172.958 33.0333 171.725 31.4C170.525 29.7667 169.891 27.8 169.825 25.5H178.925C179.058 26.8 179.508 27.8 180.275 28.5C181.041 29.1667 182.041 29.5 183.275 29.5C184.541 29.5 185.541 29.2167 186.275 28.65C187.008 28.05 187.375 27.2333 187.375 26.2C187.375 25.3333 187.075 24.6167 186.475 24.05C185.908 23.4833 185.191 23.0167 184.325 22.65C183.491 22.2833 182.291 21.8667 180.725 21.4C178.458 20.7 176.608 20 175.175 19.3C173.741 18.6 172.508 17.5667 171.475 16.2C170.441 14.8333 169.925 13.05 169.925 10.85C169.925 7.58333 171.108 5.03333 173.475 3.2C175.841 1.33333 178.925 0.399999 182.725 0.399999C186.591 0.399999 189.708 1.33333 192.075 3.2C194.441 5.03333 195.708 7.6 195.875 10.9H186.625C186.558 9.76667 186.141 8.88333 185.375 8.25C184.608 7.58333 183.625 7.25 182.425 7.25C181.391 7.25 180.558 7.53333 179.925 8.1C179.291 8.63333 178.975 9.41666 178.975 10.45C178.975 11.5833 179.508 12.4667 180.575 13.1C181.641 13.7333 183.308 14.4167 185.575 15.15C187.841 15.9167 189.675 16.65 191.075 17.35C192.508 18.05 193.741 19.0667 194.775 20.4C195.808 21.7333 196.325 23.45 196.325 25.55C196.325 27.55 195.808 29.3667 194.775 31C193.775 32.6333 192.308 33.9333 190.375 34.9C188.441 35.8667 186.158 36.35 183.525 36.35ZM214.286 36.35C211.72 36.35 209.42 35.9333 207.386 35.1C205.353 34.2667 203.72 33.0333 202.486 31.4C201.286 29.7667 200.653 27.8 200.586 25.5H209.686C209.82 26.8 210.27 27.8 211.036 28.5C211.803 29.1667 212.803 29.5 214.036 29.5C215.303 29.5 216.303 29.2167 217.036 28.65C217.77 28.05 218.136 27.2333 218.136 26.2C218.136 25.3333 217.836 24.6167 217.236 24.05C216.67 23.4833 215.953 23.0167 215.086 22.65C214.253 22.2833 213.053 21.8667 211.486 21.4C209.22 20.7 207.37 20 205.936 19.3C204.503 18.6 203.27 17.5667 202.236 16.2C201.203 14.8333 200.686 13.05 200.686 10.85C200.686 7.58333 201.87 5.03333 204.236 3.2C206.603 1.33333 209.686 0.399999 213.486 0.399999C217.353 0.399999 220.47 1.33333 222.836 3.2C225.203 5.03333 226.47 7.6 226.636 10.9H217.386C217.32 9.76667 216.903 8.88333 216.136 8.25C215.37 7.58333 214.386 7.25 213.186 7.25C212.153 7.25 211.32 7.53333 210.686 8.1C210.053 8.63333 209.736 9.41666 209.736 10.45C209.736 11.5833 210.27 12.4667 211.336 13.1C212.403 13.7333 214.07 14.4167 216.336 15.15C218.603 15.9167 220.436 16.65 221.836 17.35C223.27 18.05 224.503 19.0667 225.536 20.4C226.57 21.7333 227.086 23.45 227.086 25.55C227.086 27.55 226.57 29.3667 225.536 31C224.536 32.6333 223.07 33.9333 221.136 34.9C219.203 35.8667 216.92 36.35 214.286 36.35Z" fill="url(#paint0_linear_920_2827)"/>
</svg>
