<svg width="428" height="503" viewBox="0 0 428 503" fill="none" xmlns="http://www.w3.org/2000/svg">
<defs>
<linearGradient id="paint0_linear_920_2850" x1="430.794" y1="418.026" x2="-143.354" y2="373.523" gradientUnits="userSpaceOnUse">
<stop stop-color="#92A3FD"/>
<stop offset="1" stop-color="#9DCEFF"/>
</linearGradient>
<linearGradient id="paint1_linear_920_2850" x1="301.173" y1="293.903" x2="297.015" y2="293.622" gradientUnits="userSpaceOnUse">
<stop stop-color="#92A3FD"/>
<stop offset="1" stop-color="#9DCEFF"/>
</linearGradient>
<clipPath id="clip0_920_2850">
<rect width="428" height="518" fill="white" transform="translate(0 -15)"/>
</clipPath>
<clipPath id="clip1_920_2850">
<rect width="344.683" height="223.011" fill="white" transform="translate(41.9175 215.091)"/>
</clipPath>
</defs>
<g clip-path="url(#clip0_920_2850)">
<path d="M0 235.86C0 235.86 53.7631 247.778 79.8405 344.886C105.918 441.994 202.127 344.886 268.241 400.344C334.356 455.802 430.794 370.866 430.794 283.016V-12.0501H0V235.86Z" fill="url(#paint0_linear_920_2850)"/>
<g clip-path="url(#clip1_920_2850)">
<path d="M365.07 366.11H136.51V321.658H140.036V288.572C140.044 280.777 142.751 273.303 147.562 267.791C152.374 262.279 158.898 259.178 165.702 259.17H336.293C343.098 259.178 349.622 262.279 354.433 267.791C359.245 273.303 361.952 280.777 361.959 288.572V321.658H365.07V366.11Z" fill="#E4E4E4"/>
<path d="M371.263 415.035H359.886V414.797C359.874 403.269 355.872 392.217 348.756 384.066C341.641 375.915 331.993 371.329 321.93 371.316H179.651C169.588 371.329 159.941 375.915 152.825 384.066C145.71 392.217 141.707 403.269 141.696 414.797V415.035H130.318C127.726 415.031 125.24 413.85 123.407 411.75C121.574 409.651 120.543 406.804 120.54 403.834V331.171C117.236 329.032 114.549 317.418 116.295 308.143C117.39 302.322 120.552 295.293 129.397 294.858C138.006 294.433 144.397 303.693 144.968 312.606C145.277 317.297 144.075 321.954 141.588 325.697H141.696V336.063C160.366 329.209 179.062 325.722 197.27 325.697C215.901 325.718 234.403 329.246 252.037 336.139C288.699 322.555 324.982 322.29 359.886 335.356V325.697H359.993C357.507 321.954 356.304 317.297 356.614 312.606C357.24 302.83 364.221 294.868 372.175 294.857H372.202C381.582 294.857 384.9 301.327 386.032 306.756C388.034 316.366 384.358 329.014 381.041 331.171V403.834C381.038 406.804 380.007 409.651 378.174 411.75C376.341 413.85 373.856 415.031 371.263 415.035Z" fill="#CACACA"/>
<path d="M112.718 345.439H43.0295V352.329H44.274V414.818H51.3257V352.329H104.836V414.818H111.888V352.329H112.718V345.439Z" fill="#F0F0F0"/>
<path d="M291.131 340.102C291.131 340.102 294.552 333.672 298.944 337.474C303.336 341.275 311.47 347.69 311.47 347.69C311.47 347.69 313.136 351.792 308.824 350.251C304.512 348.71 290.437 346.23 290.437 346.23L291.131 340.102Z" fill="#9E616A"/>
<path d="M274.326 348.093C270.645 348.093 267.275 347.689 264.598 346.734C261.415 345.599 259.417 343.763 258.658 341.274C258.301 340.217 258.195 339.07 258.349 337.951C258.504 336.832 258.914 335.779 259.538 334.9C264.245 327.872 280.582 325.89 282.775 325.656L287.222 316.009C287.506 313.708 286.16 311.965 288.486 311.922L316 311.494C318.284 311.439 317.636 313.059 318.027 315.303L322.219 323.876L304.178 332.599L306.905 340.213L306.727 340.332C301.447 343.841 286.262 348.093 274.326 348.093Z" fill="#2F2E41"/>
<path d="M319.722 324.242C319.722 324.242 344.918 320.939 343.275 334.151C341.631 347.364 322.46 356.723 293.43 334.151L296.716 327.545C296.716 327.545 307.534 326.929 314.107 323.625L319.722 324.242Z" fill="#2F2E41"/>
<path d="M317.393 257.375L308.335 253.494L290.777 253.234L283.22 257.375L285.343 271.35C285.343 271.35 281.057 279.663 285.776 287.977L286.834 317.603C286.834 317.603 303.762 328.848 318.05 315.344L314.821 287.8C314.821 287.8 320.223 275.02 316.036 270.272L317.393 257.375Z" fill="#7B6F72"/>
<path d="M312.871 336.892C312.871 336.892 310.049 330.091 305.337 333.351C300.625 336.611 291.956 342.026 291.956 342.026C291.956 342.026 289.928 345.909 294.356 344.888C298.784 343.867 313.008 343.07 313.008 343.07L312.871 336.892Z" fill="#9E616A"/>
<path d="M308.451 314.422H290.779C290.334 314.422 289.908 314.219 289.593 313.859C289.279 313.499 289.102 313.01 289.102 312.501L288.323 286.011C288.323 285.501 288.5 285.013 288.814 284.652C289.129 284.292 289.556 284.09 290 284.09H309.23C309.675 284.09 310.101 284.292 310.416 284.652C310.73 285.013 310.907 285.501 310.907 286.011L310.128 312.501C310.128 313.01 309.952 313.499 309.637 313.859C309.323 314.219 308.896 314.422 308.451 314.422Z" fill="white"/>
<path d="M299.615 293.903C300.475 293.903 301.173 293.104 301.173 292.119C301.173 291.133 300.475 290.334 299.615 290.334C298.755 290.334 298.058 291.133 298.058 292.119C298.058 293.104 298.755 293.903 299.615 293.903Z" fill="url(#paint1_linear_920_2850)"/>
<path d="M300.101 303.878C299.829 303.243 299.439 302.684 298.958 302.241C298.477 301.797 297.918 301.48 297.318 301.311C296.719 301.143 296.094 301.127 295.489 301.264C294.883 301.402 294.311 301.69 293.814 302.108L285.562 296.38L281.3 301.275L293.052 309.178C293.721 310.089 294.658 310.688 295.687 310.86C296.715 311.033 297.763 310.768 298.632 310.114C299.501 309.461 300.13 308.465 300.401 307.316C300.672 306.166 300.565 304.943 300.101 303.878Z" fill="#9E616A"/>
<path d="M299.705 301.721C300.074 301.154 300.548 300.688 301.092 300.354C301.636 300.02 302.238 299.827 302.854 299.789C303.471 299.75 304.087 299.866 304.66 300.13C305.232 300.394 305.748 300.798 306.169 301.314L315.204 297.434L318.602 303.149L305.776 308.423C304.971 309.177 303.954 309.567 302.915 309.519C301.877 309.47 300.89 308.987 300.141 308.161C299.393 307.335 298.935 306.223 298.855 305.036C298.774 303.849 299.077 302.669 299.705 301.721Z" fill="#9E616A"/>
<path d="M316.417 257.259C316.417 257.259 322.283 255.915 323.847 261.739C325.412 267.563 333.233 289.066 330.886 292.202C328.54 295.338 319.937 303.85 317.199 305.642C314.462 307.434 313.289 307.434 313.289 307.434L309.769 309.226L308.596 298.922L312.61 296.198L318.764 290.41L315.244 278.315L316.417 257.259Z" fill="#7B6F72"/>
<path d="M283.901 257.449C283.901 257.449 278.035 256.105 276.47 261.929C274.906 267.753 267.085 289.257 269.431 292.393C271.778 295.529 280.381 304.041 283.118 305.833C285.856 307.625 287.029 307.625 287.029 307.625L290.549 309.417L291.722 299.113L287.708 296.389L281.554 290.601L287.225 274.697L283.901 257.449Z" fill="#7B6F72"/>
<path d="M300.248 249.35C307.714 249.35 313.766 242.417 313.766 233.864C313.766 225.312 307.714 218.379 300.248 218.379C292.783 218.379 286.73 225.312 286.73 233.864C286.73 242.417 292.783 249.35 300.248 249.35Z" fill="#9E616A"/>
<path d="M313.695 222.537C312.791 220.282 311.18 218.499 309.182 217.543C307.201 216.627 304.987 216.63 303.008 217.549C301.221 216.255 299.235 215.23 297.144 215.103C295.053 214.976 292.842 215.865 291.553 217.821C291.265 218.337 290.939 218.824 290.577 219.275C289.541 220.374 287.966 220.215 286.59 219.99C287.207 220.597 287.825 221.203 288.443 221.809C287.695 222.033 286.948 222.257 286.2 222.481C287.072 223.087 287.945 223.693 288.817 224.299C286.284 226.04 285.133 229.841 285.437 233.293C285.725 236.561 287.102 239.55 288.749 242.206C289.406 240.618 289.264 238.718 289.253 236.93C289.242 235.04 289.534 232.895 290.855 231.839C291.747 231.126 292.893 231.094 293.969 231.101C299.392 231.135 304.809 231.523 310.193 232.262C310.924 232.298 311.636 232.535 312.271 232.952C313.461 233.882 313.693 235.803 313.813 237.488C314.442 234.706 314.75 231.841 314.729 228.968C314.712 226.768 314.491 224.524 313.695 222.537Z" fill="#2F2E41"/>
<path d="M207.027 370.072C207.027 370.072 209.409 376.527 213.907 373.715C218.404 370.904 226.659 366.272 226.659 366.272C226.659 366.272 228.682 362.756 224.528 363.499C220.374 364.243 207.119 364.321 207.119 364.321L207.027 370.072Z" fill="#FEB8B8"/>
<path d="M173.397 234.21C174.26 235.19 174.753 236.517 174.773 237.909C174.793 239.3 174.337 240.646 173.503 241.657C173.33 241.86 173.144 242.045 172.944 242.212L177.622 260.074L169.662 257.222L166.441 240.697C165.897 239.699 165.658 238.523 165.76 237.353C165.863 236.182 166.301 235.084 167.007 234.23C167.422 233.74 167.918 233.351 168.466 233.084C169.014 232.818 169.603 232.679 170.199 232.677C170.794 232.675 171.384 232.81 171.933 233.073C172.482 233.336 172.98 233.723 173.397 234.21Z" fill="#FFB6B6"/>
<path d="M207.193 366.341L212.194 364.322L207.624 340.772L200.243 343.752L207.193 366.341Z" fill="#FEB8B8"/>
<path d="M225.596 360.232C225.596 360.232 229.967 365.137 233.17 360.556C236.374 355.975 242.431 348.056 242.431 348.056C242.431 348.056 243.115 343.918 239.533 346.438C235.95 348.958 223.746 354.885 223.746 354.885L225.596 360.232Z" fill="#FEB8B8"/>
<path d="M224.494 356.716L228.429 352.645L216.286 332.934L210.479 338.944L224.494 356.716Z" fill="#FEB8B8"/>
<path d="M176.032 252.507L176.945 255.688L181.051 269.973C181.332 270.914 181.448 271.909 181.393 272.902C181.338 273.895 181.113 274.866 180.73 275.759C180.347 276.652 179.814 277.45 179.162 278.107C178.51 278.764 177.752 279.268 176.93 279.589C175.409 280.158 173.759 280.062 172.297 279.318L149.195 267.274C148.285 266.814 147.473 266.134 146.814 265.282C146.155 264.429 145.664 263.423 145.375 262.333C145.087 261.244 145.007 260.095 145.141 258.967C145.276 257.838 145.621 256.756 146.154 255.795C147.053 254.18 148.455 253.017 150.076 252.544C151.696 252.071 153.413 252.323 154.876 253.249L170.891 263.664L169.082 253.786L176.032 252.507Z" fill="#00B0FF"/>
<path d="M212.387 355.198L204.497 359.36L188.426 323.379C174.649 332.19 161.097 338.701 148.054 340.038C145.906 340.236 143.777 339.459 142.125 337.874C140.474 336.289 139.433 334.023 139.228 331.566C139.207 331.325 139.193 331.084 139.187 330.842C139.08 325.257 139.953 318.874 141.213 312.175L163.402 312.491L165.212 315.666L185.217 304.096C186.187 303.549 187.242 303.227 188.321 303.148C189.4 303.07 190.482 303.237 191.505 303.64C192.527 304.043 193.47 304.674 194.279 305.496C195.087 306.319 195.746 307.316 196.217 308.432C196.325 308.681 196.424 308.935 196.513 309.195L212.387 355.198Z" fill="#2F2E41"/>
<path d="M222.341 342.236L214.451 346.398L189.001 317.717C175.224 326.528 161.672 333.039 148.629 334.376C146.481 334.574 144.352 333.797 142.7 332.212C141.049 330.627 140.008 328.361 139.803 325.903C139.781 325.663 139.768 325.422 139.762 325.18C139.654 319.595 140.527 313.212 141.788 306.513L165.266 299.505L165.787 310.004L185.791 298.434C186.761 297.887 187.816 297.565 188.896 297.486C189.975 297.408 191.057 297.575 192.079 297.978C193.102 298.381 194.045 299.012 194.853 299.834C195.662 300.657 196.321 301.654 196.791 302.77C196.9 303.019 196.999 303.273 197.088 303.533L222.341 342.236Z" fill="#2F2E41"/>
<path d="M149.704 246.573C155.233 244.341 158.1 237.282 156.108 230.807C154.116 224.333 148.02 220.893 142.491 223.125C136.962 225.357 134.095 232.416 136.086 238.891C138.078 245.366 144.175 248.805 149.704 246.573Z" fill="#FFB6B6"/>
<path d="M163.464 249.525C163.429 249.774 163.479 250.03 163.605 250.237C163.73 250.445 163.921 250.588 164.137 250.638C164.417 250.568 172.137 252.676 172.153 252.071C172.242 251.998 172.318 251.904 172.375 251.797C172.432 251.689 172.47 251.57 172.486 251.445L175.931 225.648C175.95 225.506 175.942 225.362 175.906 225.225C175.871 225.087 175.81 224.96 175.727 224.853C175.835 224.181 167.916 224.966 167.617 224.898C167.429 224.907 167.25 224.991 167.111 225.135C166.971 225.279 166.879 225.474 166.851 225.687L163.464 249.525Z" fill="#3F3D56"/>
<path d="M174.336 225.777C174.336 225.777 167.658 226.271 167.735 226.146C167.568 226.205 167.152 226.067 167.133 226.39L163.972 249.07C163.712 249.642 171.129 250.459 171.245 250.638C171.86 250.798 174.332 226.3 174.573 226.082C174.582 226.013 174.567 225.943 174.532 225.887C174.497 225.831 174.444 225.792 174.384 225.78C174.368 225.777 174.352 225.776 174.336 225.777Z" fill="white"/>
<path d="M157.297 250.779C157.306 250.482 157.281 250.183 157.222 249.893C157.054 249.044 156.601 248.305 155.96 247.838C155.319 247.371 154.542 247.213 153.8 247.399L148.962 248.679C148.597 248.78 148.253 248.962 147.95 249.216C147.647 249.47 147.391 249.79 147.197 250.157C147.002 250.525 146.873 250.932 146.817 251.357C146.76 251.782 146.778 252.216 146.868 252.633C147.02 253.376 147.388 254.038 147.912 254.509C145.619 255.773 143.698 257.778 142.388 260.278C141.078 262.778 140.435 265.662 140.539 268.575C138.953 280.222 139.126 292.883 141.695 306.925L165.816 309.823L167.753 287.363L168.461 283.877C168.654 283.377 168.834 282.883 168.995 282.388C169.976 279.618 170.541 276.679 170.668 273.693C170.742 271.561 170.514 269.429 169.995 267.379C168.333 260.824 163.719 255.444 157.297 250.779Z" fill="white"/>
<path opacity="0.2" d="M170.668 273.693C170.541 276.679 169.975 279.618 168.995 282.388C168.833 282.883 168.654 283.377 168.461 283.877L167.753 287.363C160.373 284.707 149.572 266.88 149.572 266.88L155.707 262.753L170.668 273.693Z" fill="black"/>
<path d="M165.255 241.526C165.028 242.894 165.275 244.309 165.945 245.471C166.614 246.634 167.653 247.451 168.84 247.749C169.083 247.805 169.328 247.838 169.575 247.848L174.517 265.616L179.689 258.141L174.203 242.414C174.159 241.237 173.776 240.111 173.115 239.21C172.453 238.309 171.55 237.684 170.546 237.433C169.963 237.295 169.362 237.291 168.778 237.422C168.194 237.554 167.639 237.819 167.146 238.2C166.653 238.582 166.232 239.072 165.907 239.644C165.582 240.215 165.361 240.855 165.255 241.526Z" fill="#FFB6B6"/>
<path d="M171.892 259.216L179.566 257.456L184.586 274.92C184.948 276.164 185.026 277.494 184.814 278.783C184.601 280.071 184.104 281.276 183.371 282.283C182.472 283.505 181.251 284.36 179.891 284.717C178.532 285.075 177.107 284.917 175.833 284.267L152.731 272.221C151.111 271.391 149.83 269.883 149.151 268.005C148.473 266.127 148.448 264.022 149.083 262.124C149.395 261.181 149.87 260.318 150.479 259.589C151.088 258.86 151.819 258.278 152.628 257.878C153.437 257.478 154.308 257.269 155.189 257.262C156.07 257.255 156.943 257.451 157.757 257.838C157.981 257.944 158.2 258.064 158.413 258.197L174.425 268.611L171.892 259.216Z" fill="white"/>
<path d="M150.717 218.049C148.134 217.471 145.529 218.518 143.073 219.551C141.293 220.299 139.513 221.047 137.733 221.795C135.572 222.702 133.303 223.698 131.864 225.776C130.425 227.854 130.249 231.375 132.116 232.984C127.349 230.755 121.732 232.367 117.743 236.026C115.735 237.786 114.187 240.141 113.265 242.838C112.328 245.795 112.381 249.094 112.95 252.2C113.519 255.305 114.579 258.262 115.634 261.197C116.297 263.043 117.135 265.088 118.757 265.743C120.253 266.346 121.911 265.495 123.046 264.238C125.025 262.047 125.858 258.794 126.256 255.631C126.655 252.468 126.701 249.221 127.466 246.156C128.23 243.092 129.89 240.117 132.466 239.037C131.606 242.669 132.591 247.045 135.307 249.157C137.26 250.676 139.793 250.851 142.059 250.241C144.325 249.63 146.39 248.313 148.422 247.011C149.798 246.129 151.358 244.9 151.336 243.059C151.316 241.253 149.795 240.036 148.858 238.584C147.049 235.781 147.621 231.327 150.046 229.329L149.749 229.169C152.101 228.631 154.678 227.209 155.178 224.478C155.724 221.496 153.299 218.627 150.717 218.049Z" fill="#2F2E41"/>
<path d="M154.503 343.538C152.189 343.536 149.896 343.035 147.744 342.06C145.587 341.107 143.616 339.674 141.945 337.844C140.274 336.014 138.936 333.822 138.008 331.396L124.704 296.37C120.879 286.299 125.166 274.66 134.26 270.425L134.486 270.319L161.665 341.872L161.439 341.978C159.237 343.006 156.881 343.536 154.503 343.538Z" fill="#3F3D56"/>
<path d="M348.657 340.109C346.648 340.109 344.659 339.647 342.807 338.752L342.616 338.66L365.613 276.022L365.805 276.114C369.503 277.902 372.431 281.297 373.947 285.555C375.463 289.813 375.443 294.586 373.891 298.827L362.634 329.489C361.474 332.638 359.53 335.325 357.044 337.214C354.557 339.103 351.64 340.11 348.657 340.109Z" fill="#3F3D56"/>
<path d="M41.9244 320.622C41.9374 320.523 41.9683 320.429 42.0152 320.345C42.0621 320.261 42.1239 320.189 42.1967 320.134L64.0874 303.578C63.7575 303.42 63.4816 303.144 63.3017 302.79C63.0831 302.353 63.024 301.834 63.1378 301.348C63.2516 300.861 63.5289 300.446 63.909 300.193L65.7051 299.005C66.0865 298.755 66.5389 298.687 66.9636 298.818C67.3883 298.948 67.7507 299.265 67.9716 299.701C68.091 299.94 68.1628 300.207 68.1818 300.482L83.9835 288.531C84.5142 287.059 85.3187 285.737 86.3411 284.657C87.3634 283.577 88.579 282.766 89.903 282.279V277.01H95.7104V282.279C97.6371 282.985 99.3183 284.374 100.511 286.246C101.704 288.117 102.347 290.374 102.347 292.692V294.117H96.54C96.54 295.252 96.1466 296.339 95.4465 297.141C94.7464 297.944 93.7968 298.394 92.8067 298.394C91.8166 298.394 90.867 297.944 90.1668 297.141C89.4667 296.339 89.0734 295.252 89.0734 294.117H83.2661V292.692C83.2666 292.008 83.3228 291.327 83.434 290.655L43.4591 320.887L60.0645 344.015C60.1935 344.015 60.3217 344.013 60.4515 344.013C61.7764 344.013 63.0601 344.049 64.2833 344.111C64.2095 343.876 64.1772 343.627 64.1885 343.377C64.2126 342.874 64.4095 342.403 64.7362 342.066C65.0628 341.729 65.4926 341.553 65.9318 341.578L68.003 341.702C68.442 341.729 68.8536 341.955 69.1479 342.329C69.4422 342.703 69.5953 343.196 69.5737 343.699C69.5584 343.996 69.4813 344.285 69.3489 344.541C73.0113 344.987 75.3847 345.601 75.3847 345.914C75.3847 346.426 69.0118 345.939 61.0355 345.915C60.9989 346.034 60.9354 346.139 60.8514 346.221C60.7675 346.302 60.6662 346.357 60.5579 346.378C60.4495 346.4 60.3381 346.389 60.235 346.345C60.1319 346.301 60.0408 346.227 59.9711 346.129L59.8174 345.915C51.8645 345.941 45.5184 346.425 45.5184 345.914C45.5184 345.432 51.1606 344.233 58.4713 344.04L42.0589 321.181C42.0036 321.104 41.963 321.014 41.9399 320.918C41.9167 320.822 41.9114 320.721 41.9244 320.622Z" fill="#F0F0F0"/>
<path d="M98.2686 344.18V311.683C98.2686 310.718 99.5711 309.933 101.172 309.933C102.773 309.933 104.076 310.718 104.076 311.683V344.18C104.076 345.144 102.773 345.929 101.172 345.929C99.5711 345.929 98.2686 345.144 98.2686 344.18Z" fill="#F0F0F0"/>
<path d="M91.3206 344.18V311.683C91.3206 310.718 92.6231 309.933 94.2242 309.933C95.8253 309.933 97.1279 310.718 97.1279 311.683V344.18C97.1279 345.144 95.8253 345.929 94.2242 345.929C92.6231 345.929 91.3206 345.144 91.3206 344.18Z" fill="#F0F0F0"/>
<path d="M84.3726 344.18V311.683C84.3726 310.718 85.6751 309.933 87.2762 309.933C88.8773 309.933 90.1799 310.718 90.1799 311.683V344.18C90.1799 345.144 88.8773 345.929 87.2762 345.929C85.6751 345.929 84.3726 345.144 84.3726 344.18Z" fill="#F0F0F0"/>
</g>
</g>

</svg>
