<svg  viewBox="0 0 428 487" fill="none" xmlns="http://www.w3.org/2000/svg">
<defs>
<linearGradient id="paint0_linear_920_2719" x1="428" y1="486.839" x2="-143.629" y2="451.201" gradientUnits="userSpaceOnUse">
<stop stop-color="#92A3FD"/>
<stop offset="1" stop-color="#9DCEFF"/>
</linearGradient>
<linearGradient id="paint1_linear_920_2719" x1="299.489" y1="370.252" x2="190.301" y2="361.954" gradientUnits="userSpaceOnUse">
<stop stop-color="#92A3FD"/>
<stop offset="1" stop-color="#9DCEFF"/>
</linearGradient>
<clipPath id="clip0_920_2719">

</clipPath>
</defs>
<g clip-path="url(#clip0_920_2719)">
<path d="M428 284.165C428 284.165 345.748 479.676 218.109 486.4C90.4697 493.123 0 420.442 0 420.442V-44.3818H428V284.165Z" fill="url(#paint0_linear_920_2719)"/>
<path d="M316.426 462.412H200.646C183.805 462.412 170.106 448.463 170.106 431.315V123.458C170.106 106.311 183.805 92.3621 200.646 92.3621H316.426C333.266 92.3621 346.965 106.311 346.965 123.458V431.315C346.965 448.463 333.266 462.412 316.426 462.412Z" fill="#DADBDC"/>
<path d="M316.509 453.994H200.562C188.098 453.994 177.954 443.665 177.954 430.973V123.196C177.954 110.505 188.098 100.176 200.562 100.176H316.509C328.974 100.176 339.118 110.505 339.118 123.196V430.973C339.118 443.665 328.974 453.994 316.509 453.994Z" fill="white"/>
<path d="M274.933 120.663H242.145C237.816 120.663 234.297 117.079 234.297 112.672C234.297 108.264 237.816 104.681 242.145 104.681H274.933C279.261 104.681 282.78 108.264 282.78 112.672C282.78 117.079 279.261 120.663 274.933 120.663Z" fill="#DADBDC"/>
<path d="M308.392 214.648H212.45C210.55 214.648 209.003 212.645 209.003 210.191C209.003 207.737 210.55 205.735 212.45 205.735H308.392C310.292 205.735 311.839 207.737 311.839 210.191C311.839 212.645 310.292 214.648 308.392 214.648Z" fill="#DADBDC"/>
<path d="M308.392 234.396H212.45C210.55 234.396 209.003 232.394 209.003 229.939C209.003 227.485 210.55 225.483 212.45 225.483H308.392C310.292 225.483 311.839 227.485 311.839 229.939C311.839 232.394 310.292 234.396 308.392 234.396Z" fill="#DADBDC"/>
<path d="M280.88 254.144H212.45C210.55 254.144 209.003 252.142 209.003 249.688C209.003 247.234 210.55 245.231 212.45 245.231H280.88C282.78 245.231 284.327 247.234 284.327 249.688C284.327 252.142 282.78 254.144 280.88 254.144Z" fill="#DADBDC"/>
<path d="M258.536 370.252C281.154 370.252 299.489 351.582 299.489 328.552C299.489 305.522 281.154 286.852 258.536 286.852C235.918 286.852 217.582 305.522 217.582 328.552C217.582 351.582 235.918 370.252 258.536 370.252Z" fill="url(#paint1_linear_920_2719)"/>
<path d="M247.642 329.419C249.759 333.637 251.875 337.861 253.991 342.079C254.597 343.294 256.377 342.91 256.731 341.713C259.507 332.288 264.663 323.699 271.611 316.868C273.002 315.5 270.88 313.345 269.489 314.707C262.175 321.898 256.761 330.988 253.835 340.901L256.575 340.535C254.459 336.317 252.343 332.092 250.226 327.874C249.351 326.122 246.761 327.667 247.636 329.413H247.642V329.419Z" fill="white"/>
<path d="M148.133 278.11L138.205 281.559L138.049 266.963L147.084 266.86L148.133 278.11Z" fill="#F3A3A6"/>
<path d="M139.212 270.992C144.695 270.992 149.14 266.466 149.14 260.883C149.14 255.3 144.695 250.774 139.212 250.774C133.729 250.774 129.284 255.3 129.284 260.883C129.284 266.466 133.729 270.992 139.212 270.992Z" fill="#F3A3A6"/>
<path d="M141.928 259.852C140.267 259.821 139.158 258.124 138.493 256.567C137.827 255.017 137.144 253.228 135.603 252.599C134.338 252.087 132.156 255.67 131.149 254.736C130.099 253.759 131.059 248.668 132.15 247.746C133.241 246.825 134.746 246.629 136.161 246.544C139.62 246.342 143.097 246.587 146.496 247.27C148.595 247.691 150.765 248.339 152.294 249.865C154.23 251.8 154.752 254.748 154.92 257.507C155.094 260.328 154.962 263.288 153.643 265.779C152.318 268.264 149.518 270.119 146.802 269.521C146.514 268.026 146.772 266.487 146.862 264.961C146.952 263.441 146.82 261.799 145.897 260.596C144.974 259.394 143.019 258.936 141.97 260.023" fill="#2F2E43"/>
<path d="M154.176 263.215C155.16 262.464 156.341 261.829 157.564 261.97C158.889 262.116 160.016 263.215 160.37 264.522C160.723 265.828 160.358 267.275 159.554 268.355C158.751 269.436 157.546 270.156 156.263 270.522C155.519 270.736 154.71 270.828 153.997 270.522C152.947 270.077 152.372 268.728 152.768 267.641" fill="#2F2E43"/>
<path d="M117.234 358.72C116.61 362.047 117.851 365.069 120.016 365.466C122.174 365.863 124.434 363.482 125.058 360.155C125.327 358.83 125.267 357.457 124.884 356.156L132.522 304.018L122.234 302.168L118.847 355.052C118.019 356.132 117.462 357.39 117.234 358.726V358.72Z" fill="#F3A3A6"/>
<path d="M138.025 274.863L131.017 274.942C126.071 275.76 124.752 278.47 123.685 283.452C122.048 291.052 119.962 301.179 120.399 301.32C121.101 301.552 133.091 307.131 139.158 305.751L138.025 274.863Z" fill="#7B6F72"/>
<path d="M146.632 440.57L137.304 440.676L137.452 454.148L146.78 454.042L146.632 440.57Z" fill="#F3A3A6"/>
<path d="M128.433 462.412C127.45 462.424 126.581 462.412 125.921 462.357C123.439 462.155 121.059 460.318 119.854 459.243C119.314 458.761 119.134 457.98 119.404 457.308C119.596 456.826 119.992 456.46 120.483 456.307L127.012 454.329L137.534 446.924L137.654 447.138C137.702 447.217 138.763 449.116 139.123 450.404C139.26 450.892 139.23 451.301 139.033 451.619C138.895 451.839 138.703 451.967 138.547 452.046C138.739 452.248 139.344 452.657 141.203 452.937C143.907 453.346 144.452 450.483 144.47 450.361L144.488 450.264L144.566 450.209C145.843 449.348 146.629 448.957 146.904 449.037C147.078 449.085 147.36 449.171 148.211 456.936C148.289 457.18 148.847 458.963 148.499 460.678C148.121 462.546 140.13 461.99 138.535 461.862C138.487 461.868 132.516 462.369 128.421 462.412H128.433Z" fill="#2F2E43"/>
<path d="M173.071 429.665L165.211 434.781L172.338 446.133L180.198 441.017L173.071 429.665Z" fill="#F3A3A6"/>
<path d="M162.875 460.171C161.778 460.184 160.771 460.061 160.052 459.939C159.344 459.817 158.787 459.256 158.667 458.535C158.577 458.016 158.727 457.498 159.062 457.107L163.571 451.912L168.649 439.959L168.865 440.075C168.943 440.118 170.831 441.156 171.808 442.053C172.18 442.395 172.366 442.755 172.366 443.134C172.366 443.396 172.27 443.61 172.174 443.756C172.444 443.823 173.169 443.842 174.89 443.079C177.396 441.968 176.371 439.245 176.323 439.135L176.287 439.044L176.329 438.958C176.964 437.542 177.432 436.785 177.702 436.699C177.876 436.651 178.157 436.565 182.917 442.694C183.109 442.859 184.512 444.068 185.106 445.71C185.753 447.498 178.691 451.332 177.264 452.083C177.222 452.119 169.842 457.705 166.808 459.304C165.603 459.939 164.17 460.147 162.863 460.159L162.875 460.171Z" fill="#2F2E43"/>
<path d="M152.252 327.801L126.137 328.094L124.039 352.854L135.406 444.141L148.739 443.988L142.834 391.257L164.98 438.677L176.737 430.094L159.362 385.788C159.362 385.788 164.974 346.957 160.13 337.355C155.286 327.752 152.258 327.789 152.258 327.789V327.801H152.252Z" fill="#2F2E43"/>
<path d="M165.256 329.162L123.781 329.632L135.627 274.893L153.703 274.686L165.256 329.162Z" fill="#7B6F72"/>
<path d="M169.309 358.134C170.004 361.449 168.829 364.495 166.677 364.941C164.524 365.386 162.216 363.061 161.521 359.746C161.221 358.427 161.251 357.054 161.605 355.741L152.828 303.786L163.073 301.704L167.612 354.502C168.463 355.564 169.045 356.81 169.309 358.14V358.134Z" fill="#F3A3A6"/>
<path d="M146.694 274.765L153.703 274.686C158.667 275.394 160.04 278.074 161.221 283.03C163.019 290.594 165.328 300.666 164.896 300.819C164.195 301.063 152.336 306.911 146.239 305.672L146.7 274.765H146.694Z" fill="#7B6F72"/>
</g>

</svg>
