<svg width="428" height="487" viewBox="0 0 428 487" fill="none" xmlns="http://www.w3.org/2000/svg">
<defs>
<linearGradient id="paint0_linear_920_2771" x1="428" y1="262.383" x2="-139.39" y2="201.836" gradientUnits="userSpaceOnUse">
<stop stop-color="#92A3FD"/>
<stop offset="1" stop-color="#9DCEFF"/>
</linearGradient>
<linearGradient id="paint1_linear_920_2771" x1="243.564" y1="200.399" x2="198.929" y2="197.083" gradientUnits="userSpaceOnUse">
<stop stop-color="#C58BF2"/>
<stop offset="1" stop-color="#EEA4CE"/>
</linearGradient>
<linearGradient id="paint2_linear_920_2771" x1="162.904" y1="222.735" x2="162.904" y2="264.824" gradientUnits="userSpaceOnUse">
<stop stop-color="#C58BF2"/>
<stop offset="1" stop-color="#B4C0FE"/>
</linearGradient>
<linearGradient id="paint3_linear_920_2771" x1="347.999" y1="311.987" x2="283.225" y2="309.067" gradientUnits="userSpaceOnUse">
<stop stop-color="#C58BF2"/>
<stop offset="1" stop-color="#92A3FD"/>
</linearGradient>
<clipPath id="clip0_920_2771">
<rect width="428" height="487" fill="white"/>
</clipPath>
<clipPath id="clip1_920_2771">
<rect width="450.827" height="455.813" fill="white" transform="translate(25.1094 165.532)"/>
</clipPath>
</defs>
<g clip-path="url(#clip0_920_2771)">
<path d="M0 256.746C0 256.746 67.8332 108.48 139.281 108.48C210.728 108.48 260.757 262.383 332.204 262.383C403.652 262.383 395.738 182.273 428 182.273V-47.9803H0V256.746Z" fill="url(#paint0_linear_920_2771)"/>
<g clip-path="url(#clip1_920_2771)">
<path d="M203.019 272.567H93.924C93.0162 272.566 92.1458 272.19 91.5038 271.521C90.8619 270.853 90.5008 269.946 90.4998 269V182.718C90.5008 181.772 90.8618 180.865 91.5038 180.197C92.1457 179.528 93.0161 179.152 93.924 179.151H227.832C228.74 179.152 229.611 179.528 230.253 180.197C230.894 180.865 231.256 181.772 231.257 182.718V243.154C231.248 250.952 228.27 258.429 222.977 263.943C217.683 269.457 210.505 272.558 203.019 272.567Z" fill="white"/>
<path d="M203.019 272.89H93.924C92.9339 272.889 91.9847 272.479 91.2846 271.75C90.5845 271.02 90.1906 270.032 90.1895 269V182.718C90.1906 181.686 90.5844 180.698 91.2845 179.968C91.9846 179.239 92.9339 178.829 93.924 178.827H227.832C228.822 178.829 229.772 179.239 230.472 179.968C231.172 180.698 231.566 181.686 231.567 182.718V243.154C231.558 251.038 228.548 258.596 223.196 264.171C217.844 269.746 210.587 272.881 203.019 272.89ZM93.924 180.12C93.2629 180.121 92.6292 180.395 92.1617 180.882C91.6943 181.369 91.4314 182.029 91.4307 182.718V269C91.4314 269.689 91.6943 270.349 92.1618 270.836C92.6292 271.323 93.263 271.597 93.924 271.597H203.019C210.258 271.589 217.199 268.59 222.319 263.257C227.438 257.925 230.317 250.695 230.326 243.154V182.718C230.325 182.029 230.062 181.369 229.595 180.882C229.127 180.395 228.493 180.121 227.832 180.12H93.924Z" fill="#CCCCCC"/>
<path d="M201.362 208.29H120.394C119.651 208.29 118.938 207.982 118.412 207.435C117.887 206.887 117.592 206.145 117.592 205.371C117.592 204.596 117.887 203.854 118.412 203.306C118.938 202.759 119.651 202.451 120.394 202.451H201.362C202.105 202.452 202.816 202.761 203.341 203.308C203.866 203.855 204.161 204.597 204.161 205.371C204.161 206.144 203.866 206.886 203.341 207.433C202.816 207.981 202.105 208.289 201.362 208.29Z" fill="#CCCCCC"/>
<path d="M201.362 228.401H120.394C119.651 228.401 118.938 228.093 118.412 227.546C117.887 226.998 117.592 226.256 117.592 225.482C117.592 224.707 117.887 223.965 118.412 223.417C118.938 222.87 119.651 222.562 120.394 222.562H201.362C202.105 222.562 202.818 222.87 203.344 223.417C203.869 223.965 204.165 224.707 204.165 225.482C204.165 226.256 203.869 226.998 203.344 227.546C202.818 228.093 202.105 228.401 201.362 228.401Z" fill="#CCCCCC"/>
<path d="M201.362 249.087H120.394C119.651 249.087 118.938 248.779 118.412 248.232C117.887 247.684 117.592 246.942 117.592 246.167C117.592 245.393 117.887 244.651 118.412 244.103C118.938 243.556 119.651 243.248 120.394 243.248H201.362C202.105 243.248 202.818 243.556 203.344 244.103C203.869 244.651 204.165 245.393 204.165 246.167C204.165 246.942 203.869 247.684 203.344 248.232C202.818 248.779 202.105 249.087 201.362 249.087Z" fill="#CCCCCC"/>
<path d="M226.827 200.399C236.07 200.399 243.564 192.593 243.564 182.965C243.564 173.337 236.07 165.532 226.827 165.532C217.583 165.532 210.09 173.337 210.09 182.965C210.09 192.593 217.583 200.399 226.827 200.399Z" fill="url(#paint1_linear_920_2771)"/>
<path d="M224.544 192.039C224.255 192.039 223.97 191.968 223.711 191.834C223.453 191.699 223.228 191.504 223.054 191.263L218.488 184.921C218.342 184.717 218.235 184.486 218.174 184.239C218.114 183.992 218.1 183.736 218.135 183.483C218.169 183.231 218.251 182.989 218.376 182.77C218.5 182.551 218.665 182.359 218.861 182.206C219.056 182.054 219.279 181.942 219.516 181.879C219.753 181.816 219.999 181.802 220.241 181.838C220.483 181.874 220.716 181.959 220.926 182.089C221.137 182.219 221.32 182.391 221.467 182.594L224.454 186.743L232.127 174.755C232.401 174.327 232.827 174.03 233.311 173.929C233.795 173.829 234.298 173.932 234.709 174.217C235.12 174.503 235.405 174.946 235.502 175.451C235.598 175.955 235.499 176.479 235.225 176.907L226.093 191.175C225.928 191.433 225.706 191.646 225.445 191.796C225.184 191.946 224.893 192.029 224.595 192.038C224.578 192.038 224.561 192.039 224.544 192.039Z" fill="white"/>
<path d="M162.752 347.508H53.6575C46.171 347.499 38.9935 344.397 33.6997 338.883C28.4059 333.369 25.4281 325.893 25.4197 318.095V257.658C25.4207 256.712 25.7819 255.805 26.4239 255.137C27.0659 254.468 27.9363 254.092 28.8443 254.091H162.752C163.66 254.092 164.531 254.468 165.173 255.137C165.815 255.805 166.176 256.712 166.177 257.658V343.94C166.176 344.886 165.815 345.793 165.173 346.462C164.531 347.13 163.66 347.506 162.752 347.508Z" fill="white"/>
<path d="M162.752 347.831H53.6575C46.0887 347.822 38.8324 344.686 33.4804 339.111C28.1285 333.537 25.118 325.979 25.1094 318.095V257.658C25.1105 256.626 25.5044 255.638 26.2045 254.908C26.9047 254.179 27.8541 253.769 28.8443 253.768H162.752C163.742 253.769 164.692 254.179 165.392 254.908C166.092 255.638 166.486 256.626 166.487 257.658V343.941C166.486 344.972 166.092 345.961 165.392 346.69C164.692 347.419 163.742 347.83 162.752 347.831ZM28.8443 255.06C28.1831 255.061 27.5493 255.335 27.0819 255.822C26.6144 256.309 26.3514 256.969 26.3506 257.658V318.095C26.3588 325.636 29.2384 332.865 34.3576 338.198C39.4769 343.53 46.4178 346.529 53.6575 346.538H162.752C163.413 346.537 164.047 346.263 164.515 345.776C164.982 345.289 165.245 344.629 165.246 343.941V257.658C165.245 256.969 164.982 256.309 164.515 255.822C164.047 255.335 163.413 255.061 162.752 255.06H28.8443Z" fill="#CCCCCC"/>
<path d="M136.282 283.23H55.3145C54.5711 283.23 53.8582 282.923 53.3326 282.375C52.807 281.828 52.5117 281.085 52.5117 280.311C52.5117 279.537 52.807 278.794 53.3326 278.246C53.8582 277.699 54.5711 277.391 55.3145 277.391H136.282C137.026 277.391 137.738 277.699 138.264 278.246C138.79 278.794 139.085 279.537 139.085 280.311C139.085 281.085 138.79 281.828 138.264 282.375C137.738 282.923 137.026 283.23 136.282 283.23Z" fill="#CCCCCC"/>
<path d="M136.282 303.341H55.3145C54.5711 303.341 53.8582 303.034 53.3326 302.486C52.807 301.939 52.5117 301.196 52.5117 300.422C52.5117 299.648 52.807 298.905 53.3326 298.357C53.8582 297.81 54.5711 297.502 55.3145 297.502H136.282C137.026 297.502 137.738 297.81 138.264 298.357C138.79 298.905 139.085 299.648 139.085 300.422C139.085 301.196 138.79 301.939 138.264 302.486C137.738 303.034 137.026 303.341 136.282 303.341Z" fill="#CCCCCC"/>
<path d="M136.282 324.027H55.3145C54.5711 324.027 53.8582 323.719 53.3326 323.172C52.807 322.624 52.5117 321.882 52.5117 321.108C52.5117 320.333 52.807 319.591 53.3326 319.043C53.8582 318.496 54.5711 318.188 55.3145 318.188H136.282C137.026 318.188 137.738 318.496 138.264 319.043C138.79 319.591 139.085 320.333 139.085 321.108C139.085 321.882 138.79 322.624 138.264 323.172C137.738 323.719 137.026 324.027 136.282 324.027Z" fill="#CCCCCC"/>
<path d="M162.904 276.031C172.147 276.031 179.641 268.226 179.641 258.598C179.641 248.97 172.147 241.165 162.904 241.165C153.66 241.165 146.167 248.97 146.167 258.598C146.167 268.226 153.66 276.031 162.904 276.031Z" fill="url(#paint2_linear_920_2771)"/>
<path d="M160.621 267.671C160.332 267.671 160.046 267.601 159.788 267.466C159.529 267.332 159.305 267.136 159.131 266.895L154.565 260.554C154.419 260.35 154.312 260.118 154.251 259.872C154.19 259.625 154.177 259.368 154.212 259.116C154.246 258.864 154.328 258.621 154.453 258.402C154.577 258.183 154.742 257.992 154.938 257.839C155.133 257.686 155.356 257.575 155.593 257.512C155.829 257.449 156.076 257.435 156.318 257.471C156.56 257.507 156.793 257.592 157.003 257.722C157.214 257.852 157.397 258.023 157.544 258.227L160.531 262.375L168.204 250.388C168.478 249.96 168.904 249.663 169.388 249.562C169.872 249.461 170.375 249.565 170.786 249.85C171.196 250.135 171.482 250.579 171.579 251.083C171.675 251.588 171.576 252.111 171.302 252.539L162.17 266.808C162.005 267.066 161.782 267.279 161.522 267.429C161.261 267.579 160.97 267.662 160.672 267.671C160.655 267.671 160.638 267.671 160.621 267.671Z" fill="white"/>
<path d="M298.681 427.932H146.033C138.547 427.923 131.369 424.822 126.075 419.308C120.782 413.794 117.804 406.318 117.795 398.52V309.626C117.797 308.407 118.262 307.239 119.09 306.377C119.917 305.515 121.039 305.03 122.21 305.028H298.681C299.852 305.03 300.974 305.515 301.801 306.377C302.629 307.239 303.094 308.407 303.095 309.626V423.334C303.094 424.553 302.629 425.722 301.801 426.584C300.974 427.446 299.852 427.931 298.681 427.932Z" fill="white"/>
<path d="M298.681 428.255H146.033C138.464 428.246 131.208 425.111 125.856 419.536C120.504 413.961 117.494 406.403 117.485 398.52V309.626C117.487 308.321 117.985 307.071 118.87 306.148C119.756 305.225 120.957 304.707 122.21 304.705H298.681C299.934 304.707 301.135 305.226 302.02 306.148C302.906 307.071 303.404 308.322 303.406 309.626V423.334C303.404 424.639 302.906 425.89 302.021 426.812C301.135 427.735 299.934 428.254 298.681 428.255ZM122.21 305.998C121.286 305.999 120.401 306.382 119.748 307.062C119.095 307.742 118.727 308.664 118.726 309.626V398.52C118.735 406.06 121.614 413.29 126.733 418.622C131.853 423.955 138.794 426.954 146.033 426.963H298.681C299.605 426.961 300.49 426.579 301.143 425.898C301.796 425.218 302.163 424.296 302.164 423.334V309.626C302.163 308.664 301.796 307.742 301.143 307.062C300.49 306.382 299.605 305.999 298.681 305.998H122.21Z" fill="#CCCCCC"/>
<path d="M263.797 343.327H157.094C156.608 343.327 156.127 343.228 155.679 343.035C155.23 342.842 154.822 342.559 154.479 342.202C154.135 341.844 153.863 341.42 153.677 340.953C153.491 340.486 153.395 339.985 153.395 339.479C153.395 338.974 153.491 338.473 153.677 338.006C153.863 337.539 154.135 337.115 154.479 336.757C154.822 336.4 155.23 336.117 155.679 335.924C156.127 335.731 156.608 335.632 157.094 335.632H263.797C264.283 335.632 264.764 335.731 265.212 335.924C265.661 336.117 266.069 336.4 266.412 336.757C266.756 337.115 267.028 337.539 267.214 338.006C267.4 338.473 267.496 338.974 267.496 339.479C267.496 339.985 267.4 340.486 267.214 340.953C267.028 341.42 266.756 341.844 266.412 342.202C266.069 342.559 265.661 342.842 265.212 343.035C264.764 343.228 264.283 343.327 263.797 343.327Z" fill="#CCCCCC"/>
<path d="M263.797 369.83H157.094C156.608 369.831 156.127 369.732 155.679 369.539C155.23 369.346 154.822 369.062 154.479 368.705C154.135 368.348 153.863 367.923 153.677 367.456C153.491 366.989 153.395 366.488 153.395 365.983C153.395 365.477 153.491 364.976 153.677 364.509C153.863 364.042 154.135 363.618 154.479 363.261C154.822 362.903 155.23 362.62 155.679 362.427C156.127 362.234 156.608 362.135 157.094 362.136H263.797C264.777 362.136 265.717 362.541 266.409 363.262C267.102 363.984 267.491 364.962 267.491 365.983C267.491 367.003 267.102 367.982 266.409 368.703C265.717 369.425 264.777 369.83 263.797 369.83Z" fill="#CCCCCC"/>
<path d="M263.797 397.091H157.093C156.114 397.091 155.174 396.686 154.482 395.964C153.789 395.243 153.4 394.264 153.4 393.244C153.4 392.223 153.789 391.245 154.482 390.523C155.174 389.802 156.114 389.396 157.093 389.396H263.797C264.283 389.396 264.764 389.495 265.212 389.688C265.661 389.881 266.069 390.164 266.412 390.522C266.756 390.879 267.028 391.303 267.214 391.77C267.4 392.237 267.496 392.738 267.496 393.244C267.496 393.749 267.4 394.25 267.214 394.717C267.028 395.184 266.756 395.609 266.412 395.966C266.069 396.323 265.661 396.607 265.212 396.8C264.764 396.993 264.283 397.092 263.797 397.091Z" fill="#CCCCCC"/>
<path d="M299.236 334.056C310.937 334.056 320.423 324.175 320.423 311.987C320.423 299.799 310.937 289.919 299.236 289.919C287.535 289.919 278.049 299.799 278.049 311.987C278.049 324.175 287.535 334.056 299.236 334.056Z" fill="url(#paint3_linear_920_2771)"/>
<path d="M296.345 323.473C295.98 323.473 295.619 323.384 295.291 323.214C294.964 323.043 294.68 322.796 294.46 322.491L288.68 314.463C288.494 314.205 288.359 313.912 288.282 313.6C288.206 313.287 288.189 312.962 288.232 312.643C288.276 312.324 288.38 312.017 288.538 311.74C288.695 311.462 288.904 311.22 289.151 311.027C289.399 310.833 289.681 310.692 289.981 310.612C290.28 310.532 290.592 310.515 290.899 310.56C291.205 310.606 291.5 310.714 291.766 310.878C292.033 311.042 292.265 311.26 292.451 311.518L296.232 316.769L305.945 301.594C306.292 301.054 306.831 300.678 307.443 300.551C308.056 300.424 308.692 300.555 309.211 300.916C309.731 301.277 310.092 301.838 310.215 302.476C310.338 303.114 310.213 303.776 309.867 304.318L298.307 322.38C298.097 322.706 297.816 322.976 297.486 323.166C297.157 323.356 296.788 323.461 296.411 323.472C296.389 323.472 296.367 323.473 296.345 323.473Z" fill="white"/>
<path d="M306.246 319.587C306.433 320.579 306.827 321.516 307.399 322.332C307.972 323.149 308.709 323.824 309.559 324.312C310.41 324.799 311.352 325.086 312.321 325.153C313.289 325.22 314.259 325.065 315.164 324.699L325.657 336.11L333.87 331.159L318.834 315.261C318.143 313.719 316.933 312.495 315.433 311.82C313.933 311.145 312.247 311.067 310.695 311.6C309.144 312.134 307.834 313.241 307.014 314.713C306.194 316.185 305.921 317.919 306.246 319.587Z" fill="#FFB6B6"/>
<path d="M374.155 376.962L378.885 371.864L351.53 345.475L323.997 319.868L316.372 331.092L345.223 359.143L374.155 376.962Z" fill="#E4E4E4"/>
<path d="M357.347 550.142C357.347 543.736 357.468 539.166 357.566 535.494C357.852 524.749 357.929 521.86 353.981 503.355L352.967 498.602L346.988 517.286C345.078 523.247 344.102 529.488 344.098 535.772L353.317 593.389H334.474L320.673 531.099L320.667 512.045C319.451 510.735 318.771 508.983 318.771 507.161C318.771 505.338 319.451 503.587 320.667 502.276L325.252 473.731L329.892 435.259H380.725C380.725 435.259 389.696 454.628 380.781 473.84L380.78 550.166L376.174 602.941H361.954L357.347 550.142Z" fill="#2F2E41"/>
<path d="M377.617 439.916L330.07 435.789L329.823 435.768L333.618 364.625C333.841 360.152 335.348 355.852 337.943 352.281C340.539 348.71 344.104 346.032 348.176 344.595V339.616C348.178 338.384 348.648 337.203 349.485 336.331C350.321 335.46 351.456 334.97 352.639 334.969H359.586C360.415 334.966 361.229 335.205 361.934 335.659C362.639 336.113 363.209 336.764 363.577 337.538L366.974 344.615L379.82 355.319C386.164 360.606 381.058 413.612 380.783 416.409L383.89 432.59C384.061 433.48 384.04 434.398 383.83 435.279C383.619 436.16 383.224 436.981 382.672 437.684C382.12 438.386 381.426 438.953 380.639 439.343C379.852 439.732 378.992 439.936 378.121 439.938C377.954 439.938 377.786 439.93 377.617 439.916Z" fill="#E4E4E4"/>
<path d="M327.265 458.7C328.017 458.061 328.625 457.257 329.046 456.347C329.468 455.436 329.692 454.441 329.704 453.43C329.716 452.419 329.515 451.418 329.116 450.497C328.716 449.576 328.127 448.757 327.391 448.098L332.108 433.081L324.046 427.869L317.67 449.174C316.69 450.536 316.224 452.225 316.359 453.921C316.495 455.617 317.223 457.202 318.406 458.376C319.588 459.55 321.143 460.232 322.776 460.292C324.409 460.351 326.006 459.785 327.265 458.7Z" fill="#FFB6B6"/>
<path d="M343.846 356.61L337.301 354.337L327.846 398.274L319.139 441.969L332.235 443.976L342.392 397.516L343.846 356.61Z" fill="#E4E4E4"/>
<path d="M350.995 330.421C359.619 330.421 366.61 323.139 366.61 314.156C366.61 305.172 359.619 297.89 350.995 297.89C342.37 297.89 335.379 305.172 335.379 314.156C335.379 323.139 342.37 330.421 350.995 330.421Z" fill="#FFB6B6"/>
<path d="M329.983 306.19C330.127 304.649 330.551 303.15 331.233 301.773C331.963 303.427 334.24 303.714 335.799 302.891C337.357 302.068 338.402 300.505 339.515 299.102C342.454 295.402 346.496 292.4 351.076 291.854C355.657 291.307 360.706 293.715 362.437 298.167C363.213 297.043 364.871 296.919 366.043 297.571C367.175 298.315 368.059 299.405 368.572 300.693C369.725 303.156 370.377 305.842 370.486 308.58C370.595 311.318 370.16 314.051 369.207 316.606C367.279 321.69 362.515 328.539 357.601 330.458C354.618 331.623 351.604 330.132 348.431 330.458C348.597 326.851 349.269 322.401 349.435 318.794C349.526 316.818 349.539 314.608 348.244 313.162C347.847 312.77 347.371 312.472 346.851 312.292C346.332 312.112 345.78 312.052 345.236 312.119C344.692 312.185 344.168 312.375 343.702 312.675C343.236 312.975 342.839 313.378 342.54 313.856C342.379 312.735 342.016 311.655 341.468 310.675C341.187 310.189 340.782 309.794 340.297 309.536C339.812 309.277 339.268 309.165 338.725 309.211C337.4 309.437 336.582 310.854 335.366 311.447C334.676 311.736 333.917 311.797 333.192 311.624C332.467 311.451 331.81 311.051 331.309 310.478C330.822 309.893 330.454 309.212 330.226 308.475C329.998 307.738 329.916 306.961 329.983 306.19Z" fill="#2F2E41"/>
<path opacity="0.1" d="M353.016 397.319L334.676 435.524H348.432L353.016 397.319Z" fill="black"/>
</g>
</g>

</svg>
